<svg width="746" height="485" viewBox="0 0 746 485" fill="none" xmlns="http://www.w3.org/2000/svg">
<mask id="mask0_316_132" style="mask-type:alpha" maskUnits="userSpaceOnUse" x="-116" y="-83" width="1013" height="656">
<path d="M-116 -70.8146C-116 -77.5444 -110.544 -83 -103.815 -83H884.112C890.841 -83 896.297 -77.5444 896.297 -70.8147V573H-116V-70.8146Z" fill="#F4F4F4"/>
</mask>
<g mask="url(#mask0_316_132)">
<g opacity="0.4">
<path d="M737 315.961C753.212 236.345 747.356 162.764 705.814 92.7167C676.218 42.8118 624.808 1.12271 566.004 0.0231435C510.535 -1.01398 460.607 33.1077 405.806 41.7375C315.658 55.9335 222.482 0.133839 134.925 25.6417C88.0707 39.2916 49.9704 75.6157 28.4533 118.765C6.93616 161.914 0.840884 211.299 4.22746 259.19C10.2458 344.298 48.4154 428.938 113.615 484H644.711C689.325 432.894 726.513 367.46 737 315.961Z" fill="#CDD9F3"/>
</g>
<path d="M316.422 300.865H301.325V484.192H316.422V300.865Z" fill="#B0B0D2"/>
<path d="M470.092 300.865H454.994V484.192H470.092V300.865Z" fill="#B0B0D2"/>
<path opacity="0.3" d="M316.422 300.363H301.325V332.677H316.422V300.363Z" fill="#1B1B43"/>
<path opacity="0.3" d="M470.092 300.363H454.994V332.677H470.092V300.363Z" fill="#1B1B43"/>
<path d="M555.244 294.614H216.173V309.806H555.244V294.614Z" fill="#B0B0D2"/>
<path d="M515.366 289.425H476.101V294.632H515.366V289.425Z" fill="#1B1B43"/>
<path d="M481.911 294.631H476.102L452.959 233.572C452.803 233.161 452.749 232.718 452.802 232.282C452.855 231.845 453.013 231.428 453.263 231.066C453.513 230.705 453.847 230.409 454.236 230.204C454.625 230 455.059 229.893 455.498 229.893C456.049 229.893 456.588 230.061 457.041 230.374C457.495 230.688 457.843 231.131 458.038 231.647L481.911 294.631Z" fill="#1B1B43"/>
<path d="M264.998 294.632H304.263V289.425H264.998V294.632Z" fill="#1B1B43"/>
<path d="M298.455 294.631H304.264L327.408 233.572C327.563 233.161 327.617 232.718 327.564 232.282C327.511 231.845 327.353 231.428 327.103 231.066C326.853 230.705 326.519 230.409 326.13 230.204C325.741 230 325.308 229.893 324.868 229.893C324.317 229.893 323.778 230.061 323.325 230.374C322.871 230.688 322.524 231.131 322.328 231.647L298.455 294.631Z" fill="#1B1B43"/>
<path d="M187.805 224.33L209.226 227.774L209.462 216.036L209.687 204.352L209.884 194.363L203.943 191.558L193.765 203.484L187.805 224.33Z" fill="#FFB27D"/>
<path d="M200.712 204.23C200.712 204.23 203.298 209.654 209.463 216.036L209.689 204.352L200.712 204.23Z" fill="#925D4F"/>
<path d="M224.527 189.784C224.776 189.924 231.309 199.929 228.373 200.834C225.438 201.739 221.732 201.392 221.732 201.392L224.527 189.784Z" fill="#FF9E5C" fill-opacity="0.71"/>
<path d="M226.678 181.273L223.976 206.142C223.863 207.177 223.469 208.161 222.836 208.987C222.202 209.813 221.354 210.45 220.384 210.827C219.003 211.365 217.466 211.342 216.101 210.763L200.708 204.231L198.632 190.21L211.093 177.157L226.678 181.273Z" fill="#FFB27D"/>
<path d="M189.65 210.68L182.281 227.035L210.858 231.529L212.835 218.768L189.65 210.68Z" fill="#FEEBD6"/>
<path d="M208.42 190.177C208.42 190.177 221.055 188.045 226.677 181.273C226.677 181.273 228.761 168.177 209.496 166.441C188.595 164.559 168.997 194.132 168.997 194.132L194.53 216.434L208.42 190.177Z" fill="#233862"/>
<path d="M210.208 196.368C212.352 195.265 212.925 192.105 211.488 189.309C210.05 186.513 207.146 185.14 205.002 186.243C202.857 187.345 202.284 190.506 203.722 193.302C205.159 196.098 208.063 197.47 210.208 196.368Z" fill="#D28572"/>
<path d="M208.482 193.324C208.394 192.727 207.964 191.039 207.041 190.406C206.867 190.286 206.668 190.205 206.459 190.17C206.25 190.134 206.036 190.144 205.832 190.2L205.595 189.147C205.945 189.058 206.309 189.045 206.665 189.109C207.02 189.174 207.357 189.313 207.654 189.519C209.154 190.551 209.534 193.062 209.549 193.168L208.482 193.324Z" fill="#1B1B43"/>
<path d="M217.576 200.592C219.884 200.592 221.755 198.721 221.755 196.413C221.755 194.105 219.884 192.234 217.576 192.234C215.268 192.234 213.397 194.105 213.397 196.413C213.397 198.721 215.268 200.592 217.576 200.592Z" fill="#FE9E5D"/>
<path d="M220.183 263.708C219.364 266.833 217.838 269.728 215.721 272.168C213.604 274.608 210.954 276.529 207.976 277.781C207.609 277.932 207.242 278.072 206.865 278.212C206.498 278.342 206.143 278.482 205.787 278.611C194.259 283.14 185.232 292.63 181.631 304.514C181.426 305.204 181.253 305.862 181.113 306.477C181.113 306.477 157.119 309.982 132.855 296.502C132.855 296.502 146.227 249.063 175.743 226.493C179.114 223.928 183.054 222.213 187.229 221.494C191.404 220.775 195.691 221.073 199.726 222.362C206.902 224.635 213.163 229.143 217.595 235.228L218.123 235.961L220.733 255.005C221.132 257.914 220.945 260.873 220.183 263.708Z" fill="#F9DDBF"/>
<path d="M220.183 263.708C219.364 266.833 217.837 269.727 215.72 272.168C213.603 274.608 210.953 276.529 207.975 277.781C207.609 277.932 207.242 278.072 206.864 278.212C206.498 278.341 206.142 278.482 205.786 278.611C202.055 269.455 198.992 254.897 198.992 254.897L216.969 257.28L220.183 263.708Z" fill="#F2CCAA"/>
<path d="M259.026 243.391C259.026 243.391 274.816 226.512 279.785 227.754C281.942 228.293 275.472 235.033 275.472 235.033C275.472 235.033 281.643 235.152 291.535 230.045C291.791 229.912 292.071 229.834 292.359 229.815C292.646 229.796 292.934 229.836 293.205 229.934C293.476 230.032 293.723 230.185 293.932 230.383C294.141 230.582 294.306 230.821 294.418 231.087C294.563 231.433 294.611 231.812 294.557 232.184C294.504 232.556 294.351 232.906 294.115 233.198C292.021 235.793 285.781 242.775 277.089 245.817L273.401 250.584L264.149 254.983L259.026 243.391Z" fill="#FFB27D"/>
<path d="M273.401 250.583L252.75 287.399C251.614 289.427 250.005 291.151 248.062 292.425C246.118 293.7 243.895 294.487 241.583 294.721C239.27 294.955 236.935 294.628 234.776 293.769C232.616 292.909 230.696 291.542 229.176 289.783L198.992 254.897L218.123 235.96L239.076 264.688L259.026 243.39L273.401 250.583Z" fill="#F9DDBF"/>
<path d="M206.724 441.634L188.126 478.307L192.189 478.882L198.931 469.309L220.069 484.231L232.463 484.179C232.463 484.179 234.977 481.684 228.54 474.993C220.971 467.127 216.643 456.813 216.842 446.049L216.859 445.121L211.79 439.95L206.724 441.634Z" fill="#1B1B43"/>
<path d="M207.503 453.094L203.4 484.167H207.503L212.837 473.742L232.53 483.766H248.121C248.121 483.766 250.261 480.942 242.95 475.22C234.353 468.493 228.622 458.887 227.31 448.202L227.197 447.281L221.453 442.871L207.503 453.094Z" fill="#393A8F"/>
<path d="M229.371 456.912L258.234 355.416C259.362 351.452 259.053 347.217 257.362 343.459C255.671 339.7 252.708 336.66 248.994 334.873L223.001 322.371L221.452 442.871L229.371 456.912Z" fill="#233862"/>
<path d="M132.855 296.501L127.04 324.184C126.245 327.971 126.304 331.888 127.215 335.649C128.125 339.41 129.863 342.921 132.302 345.925C134.74 348.93 137.819 351.352 141.313 353.016C144.807 354.68 148.628 355.543 152.497 355.543H206.904C201.462 382.141 204.999 418.727 206.904 456.373L229.371 456.912L244.869 360.155C246.127 352.302 244.638 344.256 240.655 337.374C236.671 330.491 230.436 325.192 223.001 322.371L181.113 306.477L132.855 296.501Z" fill="#2B478B"/>
<path opacity="0.4" d="M222.896 456.982L221.826 456.843C221.945 455.931 233.641 365.433 230.459 348.816C227.171 331.646 194.07 326.689 176.287 324.027C174.705 323.79 173.249 323.572 171.951 323.365C167.497 322.656 164.328 320.733 162.533 317.65C158.992 311.567 162.053 303.225 162.185 302.873L163.195 303.251C163.164 303.333 160.182 311.474 163.467 317.111C165.091 319.899 168.003 321.645 172.121 322.301C173.415 322.507 174.868 322.724 176.447 322.96C194.494 325.663 228.086 330.693 231.518 348.613C232.869 355.671 231.829 376.057 228.424 409.204C225.892 433.864 222.925 456.754 222.896 456.982Z" fill="white"/>
<path d="M145.213 359.921L141.493 381.424L123.689 484.335H116.205L134.009 381.424L137.729 359.921H145.213Z" fill="#B0B0D2"/>
<path d="M194.82 484.335H187.336L169.531 381.424L165.811 359.921H173.295L177.016 381.424L194.82 484.335Z" fill="#B0B0D2"/>
<path opacity="0.3" d="M145.214 359.921L141.493 381.424H134.009L137.73 359.921H145.214Z" fill="#1B1B43"/>
<path opacity="0.3" d="M177.015 381.424H169.531L165.811 359.921H173.295L177.015 381.424Z" fill="#1B1B43"/>
<path d="M188.566 365.789H118.532V355.544H188.566C189.925 355.544 191.227 356.084 192.188 357.044C193.149 358.005 193.688 359.308 193.688 360.666C193.688 362.025 193.149 363.328 192.188 364.288C191.227 365.249 189.925 365.789 188.566 365.789Z" fill="#CBCBFF"/>
<path d="M128.417 365.789H118.532L85.1428 283.942C84.695 282.844 84.6853 281.617 85.1157 280.513C85.546 279.408 86.3836 278.511 87.4558 278.006V278.006C88.0248 277.738 88.6425 277.588 89.2711 277.567C89.8998 277.545 90.5262 277.652 91.1121 277.881C91.6981 278.11 92.2312 278.455 92.6791 278.897C93.127 279.339 93.4802 279.867 93.7171 280.45L128.417 365.789Z" fill="#CBCBFF"/>
<path d="M583.309 189.077C583.056 189.206 576.129 198.862 579.006 199.89C581.884 200.917 585.581 200.732 585.581 200.732L583.309 189.077Z" fill="#D28572"/>
<path d="M618.293 225.002L595.222 227.734L595.649 216.039L596.084 204.397L596.452 194.444L602.957 191.845L613.134 204.051L618.293 225.002Z" fill="#FFBC96"/>
<path d="M605.675 204.566C605.675 204.566 602.601 209.884 595.648 216.038L596.083 204.396L605.675 204.566Z" fill="#D28572"/>
<path d="M581.543 180.527L583.146 205.355C583.213 206.388 583.562 207.383 584.155 208.232C584.748 209.08 585.563 209.75 586.511 210.167H586.511C587.86 210.761 589.389 210.805 590.77 210.289L606.349 204.469L609.022 190.628L597.208 177.116L581.543 180.527Z" fill="#FFBC96"/>
<path d="M599.572 190.621C599.572 190.621 595.746 183.193 591.763 182.057C591.763 182.057 576.423 187.055 573.045 175.291C573.045 175.291 581.688 175.374 589.096 170.188C596.503 165.002 604.231 167.491 609.581 172.331C609.581 172.331 627.061 173.193 613.279 204.034C613.279 204.034 609.815 205.183 600.995 192.863L599.572 190.621Z" fill="#1B1B43"/>
<path d="M603.87 193.159C602.32 195.875 599.389 197.12 597.324 195.941C595.258 194.762 594.84 191.605 596.39 188.89C597.94 186.174 600.871 184.928 602.937 186.107C605.002 187.286 605.42 190.443 603.87 193.159Z" fill="#FFBC96"/>
<path opacity="0.4" d="M590.566 199.447C592.911 199.447 594.812 197.515 594.812 195.133C594.812 192.751 592.911 190.82 590.566 190.82C588.22 190.82 586.319 192.751 586.319 195.133C586.319 197.515 588.22 199.447 590.566 199.447Z" fill="#FE5B52"/>
<path d="M598.861 192.922C598.65 191.524 599.037 188.657 602.009 187.807L602.306 188.844C599.491 189.648 599.908 192.634 599.928 192.761L598.861 192.922Z" fill="#1B1B43"/>
<path d="M595.222 227.734L595.484 215.712L615.794 210.5L621.725 225.418L595.222 227.734Z" fill="#FFA75F"/>
<path d="M598.361 222.901C588.167 232.823 580.747 247.704 571.401 262.802C571.401 262.802 539.723 270.98 530.647 280.056L546.958 288.324L602.675 272.867L598.361 222.901Z" fill="#EC8B3A" fill-opacity="0.93"/>
<path d="M515.989 448.049L503.283 484.128L463.522 474.208C463.522 474.208 469.708 465.749 488.367 468.181L498.288 440.298L515.989 448.049Z" fill="#163560"/>
<path d="M595.484 305.399L538.059 324.062C531.425 326.218 525.445 330.017 520.675 335.106C515.905 340.195 512.5 346.408 510.777 353.167L487.645 448.825L518.918 456.913C531.177 427.851 543.085 393.171 551.27 359.498L595.484 305.399Z" fill="#233862"/>
<path d="M574.636 450.781L579.309 484.211H535.813C535.813 484.211 539.768 474.505 558.46 472.348L557.381 452.218L574.636 450.781Z" fill="#163560"/>
<path d="M647.545 295.869L653.359 323.552C656.755 339.716 644.624 355.813 628.107 355.813H575.805C578.744 382.687 581.575 418.095 579.669 455.741L551.029 456.28L535.531 359.523C534.273 351.67 535.761 343.624 539.745 336.742C543.728 329.859 549.963 324.56 557.398 321.739L595.486 305.399L647.545 295.869Z" fill="#2B478B"/>
<path d="M649.404 304.859C644.695 259.864 637.956 217.408 604.063 219.361C602.05 219.495 600.157 220.364 598.741 221.801C595.861 224.682 593.64 228.153 592.232 231.976C590.824 235.798 590.262 239.881 590.586 243.942L595.484 305.398C595.484 305.398 621.905 310.251 649.404 304.859Z" fill="#F99746"/>
<path d="M530.646 279.652C530.646 279.652 510.696 283.426 507.46 294.749H535.768L541.16 290.975L530.646 279.652Z" fill="#FFBC96"/>
<path d="M604.247 229.237L578.366 269.407L530.647 279.652L535.769 294.749L575.779 294.545C586.522 294.335 595.714 288.719 601.686 279.787L623.928 247.839L604.247 229.237Z" fill="#F99746"/>
<path d="M559.246 295.499C548.149 295.499 536.627 295.304 535.759 295.289L535.778 294.211C536.167 294.217 574.725 294.871 579.461 293.819L579.606 293.787C585.252 292.523 590.509 289.916 594.931 286.186C599.354 282.456 602.811 277.714 605.008 272.363L610.353 259.362L611.35 259.772L606.005 272.773C603.742 278.285 600.181 283.169 595.626 287.011C591.071 290.852 585.656 293.538 579.841 294.839L579.697 294.871C577.485 295.363 568.513 295.499 559.246 295.499Z" fill="#F9B37A"/>
<path d="M659.069 484.332H666.556L645.03 359.919H637.543L659.069 484.332Z" fill="#B0B0D2"/>
<path d="M595.425 484.332H587.938L609.464 359.919H616.95L595.425 484.332Z" fill="#B0B0D2"/>
<path opacity="0.3" d="M616.935 359.919L613.215 381.422H605.73L609.451 359.919H616.935Z" fill="#1B1B43"/>
<path opacity="0.3" d="M648.737 381.422H641.253L637.533 359.919H645.017L648.737 381.422Z" fill="#1B1B43"/>
<path d="M594.193 365.789H664.227V355.544H594.193C592.834 355.544 591.531 356.084 590.571 357.044C589.61 358.005 589.07 359.308 589.07 360.666C589.07 362.025 589.61 363.328 590.571 364.288C591.531 365.249 592.834 365.789 594.193 365.789Z" fill="#CBCBFF"/>
<path d="M654.341 365.789H664.226L697.616 283.942C698.063 282.844 698.073 281.617 697.643 280.513C697.212 279.408 696.375 278.511 695.303 278.006V278.006C694.734 277.738 694.116 277.588 693.487 277.567C692.859 277.545 692.232 277.652 691.646 277.881C691.06 278.11 690.527 278.455 690.079 278.897C689.631 279.339 689.278 279.867 689.041 280.45L654.341 365.789Z" fill="#CBCBFF"/>
<path d="M733.599 483.692H46.6982V484.77H733.599V483.692Z" fill="#1B1B43"/>
</g>
</svg>
