<svg width="460" height="416" viewBox="0 0 460 416" fill="none" xmlns="http://www.w3.org/2000/svg">
<path d="M230.067 416C325.786 416 403.381 331.535 403.381 227.342C403.381 123.149 325.786 38.6836 230.067 38.6836C134.348 38.6836 56.7524 123.149 56.7524 227.342C56.7524 331.535 134.348 416 230.067 416Z" fill="#D4E3FF"/>
<path d="M412.732 0.775848L369.002 36.7092L385.683 37.8668L281.293 237.491L223.493 143.337L141.729 350.561L89.1373 269.396L23.5864 370.075L27.7108 388.096L89.1072 294.251L144.701 380.047L226.166 173.581L282.246 264.938L397.818 43.9281L408.547 56.4673L412.732 0.775848Z" fill="#5183BF"/>
<g style="mix-blend-mode:multiply" opacity="0.5">
<path d="M399.519 131.461L346.56 152.679L348.031 156.382L342.33 158.684L314.747 169.693L315.667 172.496L309.139 175.098L290.934 182.504L232.09 175.998C229.578 175.769 227.058 176.324 224.826 177.6L195.68 194.814L167.085 202.02L151.639 194.614L146.122 192.012L147.685 188.109L121.573 174.397L115.781 171.395L117.527 167.792L66.7744 141.069L0.207031 97.2324V243.355L6.27533 247.158C6.89458 249.094 8.03016 250.786 9.53692 252.016C11.0437 253.246 12.8532 253.959 14.7342 254.064C15.444 254.096 16.1548 254.029 16.8489 253.864L61.7175 282.388L74.9574 255.265L86.9101 261.17L111.735 273.48L115.229 265.273L126.722 271.278L134.537 275.382C138.858 278.785 145.938 284.89 152.558 290.795C150.26 290.595 149.34 291.595 149.34 291.595C144.651 295.198 150.535 307.609 156.788 310.812C158.455 311.643 160.293 311.988 162.12 311.812C163.627 311.551 165.032 310.821 166.166 309.711C165.614 311.412 165.246 313.113 164.879 314.515C164.552 315.961 164.493 317.464 164.705 318.935C164.918 320.407 165.398 321.817 166.117 323.084C166.836 324.352 167.779 325.45 168.893 326.316C170.007 327.181 171.267 327.797 172.602 328.126C178.394 329.427 184.003 326.224 184.003 326.224C184.003 326.224 182.992 330.928 187.865 335.432L189.06 336.433C195.312 341.237 202.668 338.435 203.127 338.235C203.559 340.961 204.942 343.4 206.989 345.04L207.908 345.741H208.092C208.721 346.174 209.402 346.511 210.115 346.742L210.391 346.942C213.241 348.043 217.93 349.244 221.976 346.642L230.802 341.037C234.88 343.277 239.383 344.442 243.95 344.44C245.425 344.448 246.879 344.071 248.191 343.339C249.503 342.608 250.635 341.543 251.49 340.236C252.855 338.161 253.738 335.758 254.064 333.23C255.461 334.407 257.01 335.351 258.661 336.033C260.868 336.833 267.948 338.335 273.005 331.729C273.543 331.131 274.007 330.458 274.384 329.727C277.51 324.123 275.579 319.519 275.487 319.419C278.521 320.52 289.738 319.819 293.324 310.812C293.324 310.711 293.416 310.711 293.416 310.611C296.818 301.804 292.037 293.797 291.945 293.597C304.082 301.003 310.058 296.099 313 291.495C315.942 286.891 315.299 282.688 315.207 280.186V279.986C315.197 279.193 315.041 278.41 314.747 277.684H314.655L311.989 270.878C311.989 270.878 314.104 269.577 317.138 267.375L318.701 266.174L319.069 265.874L320.448 264.773L320.907 264.373L322.195 263.272L322.838 262.671L324.034 261.67L324.769 260.97L325.872 259.869L326.7 259.068L327.711 258.067L328.539 257.167L329.55 256.066L330.378 255.065L331.021 254.264L331.573 253.664L340.308 250.161L342.882 258.368L370.557 248.059L381.131 244.156L391.888 272.68L459.927 238.551V99.9347L399.519 131.461ZM167.637 304.106L168.097 304.606L167.821 305.207C167.729 304.907 167.729 304.506 167.637 304.106Z" fill="#1B79A1"/>
</g>
<path d="M207.909 330.729C207.909 330.729 215.724 335.733 221.976 331.73C228.228 327.726 232.734 324.824 232.734 324.824L218.85 315.916L207.909 330.729Z" fill="#FAB29A"/>
<g style="mix-blend-mode:multiply" opacity="0.5">
<path d="M207.909 330.729C207.909 330.729 215.724 335.733 221.976 331.73C228.228 327.726 232.734 324.824 232.734 324.824L218.85 315.916L207.909 330.729Z" fill="#CC8A79"/>
</g>
<path d="M313 276.583C310.058 281.186 304.082 286.09 291.853 278.684H291.945C292.221 279.185 295.899 285.59 294.152 293.196C293.949 294.044 293.703 294.88 293.416 295.699C293.416 295.799 293.324 295.799 293.324 295.899C289.739 304.906 278.521 305.507 275.487 304.406C275.579 304.506 277.51 309.11 274.384 314.714C274.007 315.445 273.543 316.118 273.005 316.716C271.278 318.904 268.991 320.482 266.436 321.248C263.881 322.015 261.174 321.935 258.661 321.02C257.01 320.339 255.461 319.394 254.064 318.217C253.738 320.745 252.855 323.148 251.49 325.223C250.635 326.531 249.504 327.595 248.191 328.326C246.879 329.058 245.425 329.435 243.95 329.427C237.974 329.427 233.377 327.625 227.952 324.423L224.183 322.121L218.85 318.518C208.736 311.812 169.66 290.895 169.66 290.895L154.213 277.083C147.042 270.778 139.226 263.972 134.537 260.269L126.722 256.165L104.012 244.355L93.3463 238.751L62.729 222.938L104.839 157.383L125.619 167.291L151.639 179.601L167.085 187.007L202.392 178.1L210.851 175.898L239.169 195.414L309.139 243.755L311.989 255.965L314.747 262.771C315.041 263.497 315.197 264.28 315.207 265.073V265.273C315.299 267.775 315.115 273.18 313 276.583Z" fill="#FAB29A"/>
<g style="mix-blend-mode:multiply" opacity="0.5">
<path d="M224.182 322.221L218.85 318.618C208.736 312.013 169.66 290.995 169.66 290.995L154.213 277.183C147.041 270.878 139.226 264.072 134.537 260.369L126.722 256.266L104.012 244.456L108.885 235.248L143.272 252.963C143.272 252.963 185.934 292.096 198.254 300.503C210.575 308.91 223.723 319.919 223.723 319.919L224.182 322.221Z" fill="#B6AEAC"/>
</g>
<g style="mix-blend-mode:multiply" opacity="0.5">
<path d="M151.639 179.602L126.722 256.266L93.3462 238.852L125.618 167.292L151.639 179.602Z" fill="#875C50"/>
</g>
<g style="mix-blend-mode:multiply" opacity="0.5">
<path d="M314.747 262.771H314.655L311.988 255.965L309.138 243.755L239.169 195.414L210.85 175.898L202.391 178.1L197.058 186.407L173.337 221.937C173.337 221.937 177.382 233.046 190.438 231.845C203.495 230.644 214.436 210.927 219.033 208.625C220.872 207.725 231.078 211.628 243.674 217.433C262.339 228.742 298.84 250.761 306.564 256.466C309.862 258.795 312.782 261.704 315.206 265.073C315.197 264.28 315.04 263.497 314.747 262.771Z" fill="#E68064"/>
</g>
<g style="mix-blend-mode:multiply" opacity="0.5">
<path d="M294.151 293.197L268.131 273.681C257.834 265.974 259.121 256.266 259.121 256.266L291.853 278.685H291.945C292.221 279.185 295.898 285.591 294.151 293.197Z" fill="#875C50"/>
</g>
<g style="mix-blend-mode:multiply" opacity="0.5">
<path d="M274.384 314.815L255.352 300.804C247.444 294.999 247.077 283.789 247.077 283.789L275.487 304.507C275.579 304.607 277.51 309.211 274.384 314.815Z" fill="#875C50"/>
</g>
<g style="mix-blend-mode:multiply" opacity="0.5">
<path d="M254.064 318.318C253.738 320.845 252.855 323.249 251.49 325.324C246.217 322.004 241.122 318.362 236.227 314.415C229.423 308.61 229.699 302.605 229.699 302.605L254.064 318.318Z" fill="#875C50"/>
</g>
<path d="M414.322 205.724L355.478 229.144L331.573 238.752L331.021 239.352C326.886 244.305 322.226 248.707 317.138 252.463C314.104 254.665 311.989 255.966 311.989 255.966L310.334 253.664C308.628 251.369 306.576 249.406 304.265 247.86L294.244 241.354L275.303 228.944L271.809 226.642L269.511 225.241L229.423 199.019C227.94 198.123 226.221 197.806 224.55 198.118L223.723 198.418L212.23 202.722L211.494 203.022L210.85 203.322C210.099 203.634 209.434 204.151 208.92 204.824C208.544 205.154 208.231 205.562 208 206.025C199.174 221.237 189.979 225.941 183.083 226.842L180.601 227.042C179.02 227.076 177.442 226.874 175.912 226.442C175.247 226.278 174.624 225.96 174.084 225.508C173.544 225.055 173.102 224.481 172.787 223.824C172.472 223.166 172.292 222.442 172.26 221.702C172.228 220.961 172.345 220.222 172.602 219.536L185.106 189.611C186.219 186.638 188.23 184.166 190.807 182.605L224.826 162.588C227.058 161.313 229.578 160.757 232.089 160.987L290.934 167.492L309.139 160.086L332.952 150.578L387.751 128.459L410.093 193.414L414.322 205.724Z" fill="#FAB29A"/>
<path d="M147.685 173.097L111.735 258.468L86.9101 246.158L61.6255 233.647L103.92 150.178L121.573 159.385L147.685 173.097Z" fill="white"/>
<g style="mix-blend-mode:multiply" opacity="0.5">
<path d="M227.953 324.523C225.195 322.921 222.252 320.92 218.85 318.618C208.737 312.012 169.66 290.995 169.66 290.995L154.214 277.183C157.892 277.283 165.339 278.784 172.97 287.191L183.176 281.887C183.176 281.887 194.301 282.888 198.531 298.901L209.104 293.797C211.492 295.27 213.517 297.35 215.006 299.86C216.495 302.369 217.404 305.234 217.655 308.209C217.655 308.209 226.114 311.412 227.493 317.216C228.118 319.589 228.274 322.079 227.953 324.523Z" fill="#875C50"/>
</g>
<path d="M162.12 296.8C160.293 296.976 158.455 296.631 156.787 295.799C150.535 292.597 144.651 280.186 149.34 276.583C149.34 276.583 151.822 273.881 158.35 278.084C162.212 280.587 164.695 282.989 166.166 285.391C167.117 286.905 167.688 288.665 167.821 290.495C168.096 293.297 165.706 296.2 162.12 296.8Z" fill="#FAB29A"/>
<g style="mix-blend-mode:multiply" opacity="0.5">
<path d="M162.121 296.8C163.088 292.85 164.444 289.024 166.166 285.391C167.118 286.906 167.688 288.665 167.821 290.495C168.097 293.297 165.706 296.2 162.121 296.8Z" fill="#CC8A79"/>
</g>
<path d="M172.602 313.114C171.267 312.784 170.006 312.169 168.893 311.303C167.779 310.438 166.836 309.339 166.117 308.072C165.397 306.805 164.918 305.394 164.705 303.923C164.493 302.451 164.551 300.949 164.879 299.502C165.887 294.575 167.659 289.87 170.119 285.591C175.636 276.183 191.91 280.186 190.255 295.899L184.003 311.212C184.003 311.212 178.394 314.415 172.602 313.114Z" fill="#FAB29A"/>
<path d="M210.666 306.208L203.127 323.222C202.667 323.422 195.312 326.225 189.059 321.421L187.864 320.42C182.991 315.916 184.003 311.212 184.003 311.212L190.255 295.899C190.255 295.899 194.76 286.591 202.575 288.793H203.035C211.126 291.596 212.689 299.702 210.666 306.208Z" fill="#FAB29A"/>
<path d="M224.643 315.415C223.815 319.919 220.321 331.329 220.321 331.329C218.942 332.83 216.552 334.431 210.116 331.829C208.991 331.415 207.936 330.807 206.99 330.028C204.943 328.387 203.559 325.948 203.128 323.222L209.288 309.21C212.046 306.708 214.713 306.107 216.92 306.608C221.793 307.609 225.011 313.514 224.643 315.415Z" fill="#FAB29A"/>
<g style="mix-blend-mode:multiply" opacity="0.5">
<path d="M202.575 288.793C200.369 290.495 196.231 294.698 193.381 302.805C191.358 308.91 189.335 315.516 187.864 320.42C182.991 315.916 184.003 311.212 184.003 311.212L190.255 295.899C190.255 295.899 194.76 286.591 202.575 288.793Z" fill="#CC8A79"/>
</g>
<g style="mix-blend-mode:multiply" opacity="0.5">
<path d="M216.92 306.608C215.448 308.009 213.334 310.911 211.219 316.816C209.104 322.721 208.001 326.525 206.99 330.028C204.943 328.387 203.559 325.948 203.128 323.222L209.288 309.21C212.046 306.708 214.713 306.107 216.92 306.608Z" fill="#CC8A79"/>
</g>
<g style="mix-blend-mode:multiply" opacity="0.5">
<path d="M410.093 193.414C366.787 209.327 316.769 228.043 312.264 231.045C308.9 233.231 305.238 234.819 301.415 235.749C296.726 232.447 290.749 228.343 284.129 223.939C295.071 214.532 294.151 199.319 294.151 199.319C290.749 211.029 285.233 217.434 279.992 221.037C256.822 205.424 229.055 187.009 226.94 186.908C224.826 186.808 208.919 192.013 208.919 192.013C208.919 192.013 208.092 208.026 196.047 218.035C192.018 221.452 187.673 224.403 183.083 226.842C189.979 225.941 199.173 221.237 208 206.024C208.231 205.562 208.543 205.154 208.919 204.823L209.287 204.423H209.379L209.839 204.023L210.298 203.723C210.323 203.723 210.346 203.712 210.363 203.693C210.381 203.674 210.39 203.649 210.39 203.622L210.85 203.422L211.218 203.222H211.494L212.229 202.922L223.722 198.618H224.55C226.209 198.223 227.944 198.508 229.423 199.419L269.51 225.641L275.303 229.344L294.243 241.354L304.265 247.86C306.576 249.406 308.628 251.369 310.333 253.664L311.988 255.966C311.988 255.966 314.103 254.665 317.137 252.463C322.431 248.531 327.277 243.929 331.572 238.752L414.322 205.724L410.093 193.414Z" fill="#CC8A79"/>
</g>
<g style="mix-blend-mode:multiply" opacity="0.5">
<path d="M355.477 229.143L331.572 238.751L331.02 239.352L309.138 160.085L332.951 150.577L355.477 229.143Z" fill="#CC8A79"/>
</g>
<path d="M395.015 224.039L370.558 233.147L342.882 243.456L314.748 154.681L342.331 143.672L360.352 136.466L395.015 224.039Z" fill="white"/>
<g style="mix-blend-mode:multiply">
<path d="M395.014 224.039L370.557 233.147L342.331 143.672L360.352 136.466L395.014 224.039Z" fill="#B3B3B3"/>
</g>
<path d="M459.927 84.9222V223.538L391.888 257.667L381.131 229.243L377.821 220.336L372.856 207.225L364.949 186.307L362.926 181.003L349.043 144.072L348.031 141.37L346.56 137.566L399.52 116.449L459.927 84.9222Z" fill="#0169EE"/>
<g style="mix-blend-mode:multiply">
<path d="M121.573 159.385L86.9101 246.158L61.6255 233.647L103.92 150.178L121.573 159.385Z" fill="#B3B3B3"/>
</g>
<path d="M117.527 152.779L115.781 156.382L113.298 161.386L97.3918 194.213L94.9093 199.218L79.1869 231.445L74.9574 240.252L61.7175 267.475L16.8489 238.851L6.27533 232.145L0.207031 228.342V82.2196L66.7744 126.056L117.527 152.779Z" fill="#03254E"/>
<path d="M32.0118 211.044C31.9357 213.089 31.3023 215.063 30.1922 216.714C29.0822 218.366 27.5457 219.62 25.7785 220.318C24.0113 221.016 22.0933 221.125 20.2687 220.632C18.4442 220.14 16.7956 219.067 15.533 217.551C14.2704 216.035 13.4509 214.144 13.1788 212.119C12.9067 210.094 13.1944 208.027 14.0052 206.181C14.8159 204.335 16.1131 202.793 17.7316 201.752C19.35 200.711 21.2165 200.218 23.0932 200.335C25.573 200.491 27.8974 201.7 29.5656 203.703C31.2339 205.707 32.1124 208.343 32.0118 211.044Z" fill="#CACACA"/>
<path d="M418.116 211.117C418.04 213.161 417.407 215.135 416.297 216.786C415.187 218.438 413.65 219.692 411.883 220.39C410.116 221.088 408.198 221.197 406.373 220.705C404.549 220.212 402.9 219.139 401.638 217.623C400.375 216.107 399.555 214.216 399.283 212.191C399.011 210.167 399.299 208.099 400.11 206.253C400.92 204.407 402.218 202.865 403.836 201.824C405.455 200.783 407.321 200.29 409.198 200.408C411.677 200.563 414.002 201.772 415.67 203.776C417.338 205.779 418.217 208.415 418.116 211.117Z" fill="#CACACA"/>
<path d="M210.023 368.16C205.886 369.161 205.15 369.862 204.323 374.465C203.495 369.862 202.76 369.161 198.622 368.16C202.76 367.259 203.495 366.559 204.323 361.955C205.15 366.559 205.886 367.259 210.023 368.16Z" fill="white"/>
<path d="M297.066 134.603C290.308 136.225 289.106 137.36 287.754 144.82C286.403 137.36 285.201 136.225 278.442 134.603C285.201 133.143 286.403 132.008 287.754 124.547C289.106 132.008 290.308 133.143 297.066 134.603Z" fill="white"/>
<path d="M178.461 140.441C169.212 142.661 167.568 144.214 165.718 154.423C163.868 144.214 162.224 142.661 152.975 140.441C162.224 138.444 163.868 136.89 165.718 126.681C167.568 136.89 169.212 138.444 178.461 140.441Z" fill="white"/>
<path d="M380.385 270.615C371.136 272.834 369.492 274.388 367.642 284.597C365.792 274.388 364.148 272.834 354.899 270.615C364.148 268.618 365.792 267.064 367.642 256.855C369.492 267.064 371.136 268.618 380.385 270.615Z" fill="white"/>
<mask id="mask0_314_138" style="mask-type:alpha" maskUnits="userSpaceOnUse" x="-96" y="-34" width="650" height="406">
<path d="M-96 -21.8147C-96 -28.5445 -90.5444 -34 -83.8147 -34H541.815C548.544 -34 554 -28.5444 554 -21.8147V371.38H-96V-21.8147Z" fill="#F4F4F4"/>
</mask>
<g mask="url(#mask0_314_138)">
</g>
<path d="M224.483 71.6728L125.084 60.4363L121.327 99.8155L220.726 111.052L224.483 71.6728Z" fill="#50BFA5"/>
<path d="M221.757 100.246L122.358 89.0096L121.875 94.0773L221.273 105.314L221.757 100.246Z" fill="#96D9C9"/>
<path d="M222.7 90.3512L123.301 79.1147L122.818 84.1824L222.217 95.4189L222.7 90.3512Z" fill="#96D9C9"/>
<path d="M223.645 80.4555L124.246 69.219L123.763 74.2847L223.161 85.5212L223.645 80.4555Z" fill="#96D9C9"/>
<path d="M224.669 70.8825L125.27 59.646L124.787 64.7117L224.186 75.9482L224.669 70.8825Z" fill="#96D9C9"/>
<path d="M187.48 67.49L166.808 65.1531L163.051 104.532L183.723 106.869L187.48 67.49Z" fill="#F7CC7F"/>
<path d="M126.29 60.5726L111.279 58.8757L107.522 98.2549L122.533 99.9517L126.29 60.5726Z" fill="#3C8F7C"/>
<path d="M357.931 382.927L356.573 390.643C356.353 391.891 342.84 390.121 326.392 386.691C309.943 383.26 296.786 379.467 297.006 378.219L298.364 370.503L357.931 382.927Z" fill="#E59F39"/>
<path d="M334.792 388.442L336.548 378.467L357.931 382.927L356.561 390.711C356.378 391.752 347.188 390.745 334.792 388.442Z" fill="#EAB054"/>
<path d="M334.041 388.216C331.647 387.762 329.148 387.265 326.578 386.729C322.748 385.93 319.091 385.114 315.727 384.314L317.457 374.485L335.785 378.308L334.041 388.216Z" fill="#EAB054"/>
<path d="M314.937 384.301C304.22 381.7 296.814 379.311 296.981 378.363L298.364 370.503L316.692 374.326L314.937 384.301Z" fill="#EAB054"/>
<path d="M298.438 370.088C298.236 371.235 311.407 374.947 327.856 378.378C344.304 381.808 357.803 383.658 358.005 382.511C358.207 381.363 345.036 377.652 328.588 374.221C312.139 370.791 298.64 368.939 298.438 370.088Z" fill="#E59F39"/>
<path d="M303.711 371.618C303.549 372.537 314.359 375.563 327.856 378.378C341.351 381.192 352.424 382.73 352.586 381.812C352.748 380.893 341.937 377.867 328.441 375.052C314.944 372.238 303.872 370.7 303.711 371.618Z" fill="#F7CC7F"/>
<path d="M364.887 374.897L363.415 383.257C363.178 384.608 349.651 382.923 333.201 379.493C316.752 376.062 303.611 372.185 303.849 370.834L305.32 362.474L364.887 374.897Z" fill="#E59F39"/>
<path d="M341.601 381.244L343.503 370.438L364.886 374.897L363.402 383.331C363.203 384.458 354.001 383.523 341.601 381.244Z" fill="#EAB054"/>
<path d="M340.087 380.854C337.792 380.424 335.395 379.95 332.932 379.436C329.263 378.671 325.759 377.883 322.538 377.105L324.412 366.456L341.976 370.119L340.087 380.854Z" fill="#EAB054"/>
<path d="M320.983 376.944C310.72 374.409 303.64 372.017 303.821 370.99L305.32 362.474L322.885 366.137L320.983 376.944Z" fill="#EAB054"/>
<path d="M305.319 362.474C305.077 363.851 318.214 367.749 334.664 371.18C351.113 374.61 364.644 376.275 364.886 374.897C365.129 373.52 351.991 369.623 335.542 366.192C319.092 362.761 305.562 361.097 305.319 362.474Z" fill="#E59F39"/>
<path d="M310.666 363.589C310.504 364.507 321.314 367.533 334.811 370.348C348.307 373.163 359.379 374.7 359.541 373.782C359.703 372.864 348.893 369.838 335.396 367.023C321.899 364.208 310.827 362.67 310.666 363.589Z" fill="#F7CC7F"/>
<path d="M362.531 365.788L361.173 373.505C360.953 374.753 347.441 372.983 330.992 369.552C314.543 366.121 301.386 362.33 301.606 361.082L302.964 353.365L362.531 365.788Z" fill="#E59F39"/>
<path d="M339.393 371.304L341.148 361.329L362.531 365.788L361.161 373.573C360.978 374.613 351.788 373.607 339.393 371.304Z" fill="#EAB054"/>
<path d="M338.64 371.078C336.247 370.624 333.747 370.127 331.177 369.591C327.347 368.792 323.69 367.976 320.326 367.177L322.056 357.347L340.384 361.169L338.64 371.078Z" fill="#EAB054"/>
<path d="M319.537 367.163C308.82 364.563 301.414 362.174 301.581 361.225L302.964 353.365L321.293 357.187L319.537 367.163Z" fill="#EAB054"/>
<path d="M302.965 353.365C302.722 354.742 315.86 358.64 332.309 362.07C348.759 365.501 362.289 367.165 362.532 365.789C362.774 364.411 349.636 360.513 333.187 357.083C316.738 353.652 303.207 351.988 302.965 353.365Z" fill="#E59F39"/>
<path d="M308.311 354.48C308.149 355.397 318.959 358.424 332.456 361.239C345.953 364.054 357.024 365.591 357.186 364.674C357.348 363.756 346.538 360.729 333.041 357.914C319.544 355.099 308.472 353.562 308.311 354.48Z" fill="#F7CC7F"/>
<path d="M367.96 357.44L366.488 365.799C366.25 367.151 352.723 365.466 336.274 362.035C319.825 358.605 306.684 354.728 306.922 353.376L308.393 345.017L367.96 357.44Z" fill="#E59F39"/>
<path d="M344.674 363.787L346.576 352.981L367.959 357.44L366.475 365.874C366.277 367.001 357.074 366.067 344.674 363.787Z" fill="#EAB054"/>
<path d="M343.159 363.396C340.865 362.966 338.468 362.493 336.005 361.979C332.335 361.214 328.831 360.426 325.61 359.647L327.484 348.999L345.049 352.662L343.159 363.396Z" fill="#EAB054"/>
<path d="M324.055 359.487C313.793 356.95 306.713 354.559 306.894 353.531L308.393 345.017L325.957 348.68L324.055 359.487Z" fill="#EAB054"/>
<path d="M308.318 345.433C308.116 346.58 321.287 350.292 337.736 353.723C354.185 357.153 367.683 359.004 367.885 357.856C368.087 356.708 354.917 352.997 338.468 349.566C322.018 346.136 308.521 344.284 308.318 345.433Z" fill="#E59F39"/>
<path d="M313.738 346.133C313.576 347.051 324.386 350.076 337.883 352.891C351.38 355.706 362.452 357.244 362.613 356.326C362.775 355.408 351.965 352.381 338.468 349.566C324.971 346.751 313.899 345.214 313.738 346.133Z" fill="#F7CC7F"/>
<path d="M383.369 350.855L380.406 357.194C379.927 358.219 368.924 353.242 355.83 346.078C342.736 338.914 332.51 332.275 332.989 331.25L335.954 324.911L383.369 350.855Z" fill="#E59F39"/>
<path d="M362.217 349.579L366.025 341.525L383.36 350.906L380.388 357.193C379.991 358.033 372.332 354.777 362.217 349.579Z" fill="#EAB054"/>
<path d="M361.45 349.188C359.554 348.206 357.58 347.16 355.556 346.063C352.541 344.428 349.675 342.821 347.049 341.3L350.875 333.194L365.308 341.017L361.45 349.188Z" fill="#EAB054"/>
<path d="M346.385 340.876C338.166 335.967 332.624 332.068 332.98 331.297L335.934 324.907L350.134 332.766L346.385 340.876Z" fill="#EAB054"/>
<path d="M335.799 324.284C335.311 325.351 345.56 332.177 358.693 339.528C371.825 346.88 382.866 351.973 383.354 350.905C383.843 349.836 373.593 343.012 360.461 335.659C347.329 328.308 336.287 323.215 335.799 324.284Z" fill="#E59F39"/>
<path d="M340.105 326.792C339.771 327.517 348.217 332.942 358.971 338.907C369.725 344.874 378.713 349.121 379.048 348.396C379.382 347.67 370.936 342.246 360.182 336.281C349.428 330.315 340.44 326.067 340.105 326.792Z" fill="#F7CC7F"/>
<path d="M375.234 300.355L375.928 307.63C376.04 308.806 364.264 311.228 349.625 313.039C334.988 314.851 323.03 315.366 322.918 314.19L322.224 306.916L375.234 300.355Z" fill="#E59F39"/>
<path d="M357.077 312.081L356.208 302.762L375.25 300.358L375.929 307.631C376.019 308.603 368.049 310.438 357.077 312.081Z" fill="#EAB054"/>
<path d="M356.152 312.074C354.08 312.339 351.909 312.595 349.673 312.837C346.34 313.198 343.145 313.497 340.194 313.73L339.224 304.794L355.174 303.066L356.152 312.074Z" fill="#EAB054"/>
<path d="M339.169 314.1C329.688 314.99 322.999 315.078 322.918 314.186L322.245 306.796L338.315 304.72L339.169 314.1Z" fill="#EAB054"/>
<path d="M322.191 307.144C322.306 308.32 334.347 307.824 349.088 306.036C363.828 304.249 375.684 301.847 375.57 300.671C375.456 299.495 363.413 299.99 348.673 301.778C333.933 303.566 322.076 305.968 322.191 307.144Z" fill="#E59F39"/>
<path d="M327.045 306.536C327.124 307.344 336.965 306.822 349.024 305.37C361.082 303.919 370.794 302.087 370.715 301.279C370.636 300.471 360.796 300.993 348.737 302.444C336.677 303.896 326.965 305.727 327.045 306.536Z" fill="#F7CC7F"/>
</svg>
