<svg width="20" height="20" viewBox="0 0 20 20" fill="none" xmlns="http://www.w3.org/2000/svg">
<path d="M9.707 5.29303C9.51947 5.10556 9.26516 5.00024 9 5.00024C8.73484 5.00024 8.48053 5.10556 8.293 5.29303L4.293 9.29303C4.10553 9.48056 4.00021 9.73487 4.00021 10C4.00021 10.2652 4.10553 10.5195 4.293 10.707L8.293 14.707C8.4816 14.8892 8.7342 14.99 8.9964 14.9877C9.2586 14.9854 9.50941 14.8803 9.69482 14.6948C9.88023 14.5094 9.9854 14.2586 9.98767 13.9964C9.98995 13.7342 9.88916 13.4816 9.707 13.293L7.414 11H15C15.2652 11 15.5196 10.8947 15.7071 10.7071C15.8946 10.5196 16 10.2652 16 10C16 9.73481 15.8946 9.48046 15.7071 9.29292C15.5196 9.10539 15.2652 9.00003 15 9.00003H7.414L9.707 6.70703C9.89447 6.5195 9.99979 6.26519 9.99979 6.00003C9.99979 5.73487 9.89447 5.48056 9.707 5.29303Z" fill="black"/>
</svg>
