<svg width="31" height="16" viewBox="0 0 31 16" fill="none" xmlns="http://www.w3.org/2000/svg">
<path d="M15.7668 0.141602C15.5633 0.141773 15.3256 0.289741 15.2357 0.472219L14.0692 2.84057L0.638817 2.78332C0.167084 2.77541 0.164243 3.48595 0.636046 3.48143L13.7262 3.53736L11.8344 7.37895H0.647639C0.17561 7.37236 0.17561 8.08373 0.647639 8.07707H11.4901L9.59964 11.9166H0.637408C0.165379 11.91 0.165379 12.6214 0.637408 12.6147H9.25535L7.99754 15.1692C7.90767 15.3517 7.99965 15.4996 8.20274 15.4999H23.1964C23.3999 15.4997 23.6376 15.3517 23.7274 15.1692L30.9655 0.472219C31.0554 0.289806 30.9634 0.141852 30.7603 0.141602H15.7668Z" fill="#B89500"/>
</svg>
