<svg width="12" height="17" viewBox="0 0 12 17" fill="none" xmlns="http://www.w3.org/2000/svg">
<path d="M10.2428 10.7427L6 14.9855L1.75725 10.7427C0.918169 9.90362 0.346755 8.83452 0.115268 7.67064C-0.116218 6.50676 0.00262021 5.30038 0.456755 4.20404C0.91089 3.1077 1.67993 2.17065 2.66661 1.51137C3.6533 0.8521 4.81333 0.500214 6 0.500214C7.18668 0.500214 8.3467 0.8521 9.33339 1.51137C10.3201 2.17065 11.0891 3.1077 11.5433 4.20404C11.9974 5.30038 12.1162 6.50676 11.8847 7.67064C11.6533 8.83452 11.0818 9.90362 10.2428 10.7427ZM0.750003 15.5H11.25V17H0.750003V15.5Z" fill="#6854FC"/>
</svg>
