<svg width="16" height="16" viewBox="0 0 16 16" fill="none" xmlns="http://www.w3.org/2000/svg">
<path d="M0.68225 5.14049L7.6175 0.982493C7.73406 0.912554 7.86744 0.87561 8.00338 0.87561C8.13931 0.87561 8.27269 0.912554 8.38925 0.982493L15.3177 5.14124C15.3733 5.17455 15.4194 5.2217 15.4513 5.27809C15.4832 5.33448 15.5 5.39819 15.5 5.46299V15C15.5 15.1989 15.421 15.3897 15.2803 15.5303C15.1397 15.671 14.9489 15.75 14.75 15.75H1.25C1.05109 15.75 0.860322 15.671 0.71967 15.5303C0.579018 15.3897 0.5 15.1989 0.5 15V5.46224C0.499986 5.39744 0.516768 5.33373 0.548709 5.27734C0.58065 5.22095 0.626659 5.1738 0.68225 5.14049ZM12.7595 6.18299L8.04575 10.2622L3.23525 6.17849L2.26475 7.32149L8.05475 12.2377L13.7405 7.31774L12.7595 6.18299Z" fill="#6854FC"/>
</svg>
