<svg width="27" height="30" viewBox="0 0 27 30" fill="none" xmlns="http://www.w3.org/2000/svg">
<path d="M6.75014 8.79565C7.89719 8.79565 8.82706 7.86945 8.82706 6.72693C8.82706 5.5844 7.89719 4.6582 6.75014 4.6582C5.60309 4.6582 4.67322 5.5844 4.67322 6.72693C4.67322 7.86945 5.60309 8.79565 6.75014 8.79565Z" fill="#2555BB"/>
<path d="M19.7306 11.3816C18.4917 11.3831 17.304 11.874 16.4279 12.7466C15.5519 13.6192 15.059 14.8022 15.0575 16.0362V23.5354C15.0575 24.5641 14.6473 25.5507 13.9169 26.2781C13.1866 27.0055 12.1961 27.4142 11.1633 27.4142C10.1305 27.4142 9.13998 27.0055 8.40967 26.2781C7.67936 25.5507 7.26908 24.5641 7.26908 23.5354V21.0358L9.86523 20.1737V19.1393H3.63446V20.1737L6.23061 21.0358V23.5354C6.23061 24.8384 6.75031 26.0881 7.67537 27.0095C8.60043 27.9309 9.85507 28.4486 11.1633 28.4486C12.4715 28.4486 13.7262 27.9309 14.6512 27.0095C15.5763 26.0881 16.096 24.8384 16.096 23.5354V16.0362C16.096 15.0761 16.4789 14.1552 17.1606 13.4763C17.8422 12.7974 18.7667 12.416 19.7306 12.416C20.6946 12.416 21.6191 12.7974 22.3007 13.4763C22.9823 14.1552 23.3652 15.0761 23.3652 16.0362V19.703C23.7086 19.641 24.0603 19.641 24.4037 19.703V16.0362C24.4022 14.8022 23.9094 13.6192 23.0333 12.7466C22.1573 11.874 20.9695 11.3831 19.7306 11.3816Z" fill="#2555BB"/>
<path d="M24.4039 19.7029V23.2766H27.0001V22.7594C26.9993 22.0266 26.7383 21.3178 26.2631 20.7583C25.7879 20.1989 25.1293 19.825 24.4039 19.7029Z" fill="#2555BB"/>
<path d="M20.769 26.8969C20.769 27.7199 21.0972 28.5092 21.6815 29.0912C22.2657 29.6731 23.0581 30 23.8844 30C24.7106 30 25.503 29.6731 26.0873 29.0912C26.6715 28.5092 26.9998 27.7199 26.9998 26.8969V24.311H20.769V26.8969Z" fill="#2555BB"/>
<path d="M20.769 22.7594V23.2766H23.3651V19.7029C22.6397 19.825 21.9811 20.1989 21.506 20.7583C21.0308 21.3178 20.7697 22.0266 20.769 22.7594Z" fill="#2555BB"/>
<path d="M9.86523 17.0706H3.63446V18.1049H9.86523V17.0706Z" fill="#2555BB"/>
<path d="M3.63462 15.0017V16.0361H6.23077V9.78338C5.46054 9.6537 4.76733 9.24055 4.28851 8.62579C3.80969 8.01103 3.5802 7.23954 3.64553 6.4642C3.71085 5.68885 4.06622 4.96625 4.64121 4.43958C5.2162 3.91291 5.96885 3.62061 6.75 3.62061C7.53115 3.62061 8.2838 3.91291 8.85879 4.43958C9.43378 4.96625 9.78915 5.68885 9.85447 6.4642C9.9198 7.23954 9.69031 8.01103 9.21149 8.62579C8.73267 9.24055 8.03946 9.6537 7.26923 9.78338V16.0361H9.86539V14.4272C9.85851 13.9553 9.95696 13.4878 10.1536 13.0585C10.3503 12.6292 10.6402 12.2488 11.0025 11.9447C12.0857 11.0694 12.8701 9.88146 13.2478 8.5441C13.6255 7.20674 13.578 5.78567 13.1118 4.47628C12.6457 3.1669 11.7837 2.0335 10.6445 1.23194C9.50531 0.43037 8.14478 0 6.75 0C5.35522 0 3.99469 0.43037 2.85548 1.23194C1.71626 2.0335 0.854319 3.1669 0.388157 4.47628C-0.0780056 5.78567 -0.125492 7.20674 0.252227 8.5441C0.629946 9.88146 1.41432 11.0694 2.4975 11.9447C2.85979 12.2488 3.14974 12.6292 3.34639 13.0585C3.54304 13.4878 3.64149 13.9553 3.63462 14.4272V15.0017Z" fill="#2555BB"/>
</svg>
